<svg version="1.1" id="Layer_1" xmlns="http://www.w3.org/2000/svg" xmlns:xlink="http://www.w3.org/1999/xlink" x="0px" y="0px"
	 width="100%" viewBox="0 0 390 390" enable-background="new 0 0 390 390" xml:space="preserve">
<path fill="#F05941" opacity="1.000000" stroke="none" 
	d="M162.677902,315.344299 
	C160.144882,313.150940 157.406525,311.522491 155.741882,309.142883 
	C152.499008,304.507111 148.431091,303.500702 142.997345,303.634613 
	C125.006966,304.078064 107.001259,304.169312 89.004585,304.018921 
	C66.903023,303.834229 50.421371,293.405243 39.643665,274.547638 
	C27.312729,252.972382 26.363153,230.772079 38.153194,208.393219 
	C39.395554,206.035065 39.342449,202.998413 39.913132,200.281342 
	C40.593655,197.041306 40.519531,193.333664 42.141983,190.659607 
	C46.675243,183.188080 48.452133,174.909439 50.900993,166.727722 
	C54.570580,154.467514 63.095505,146.454208 75.056633,141.917648 
	C77.019936,141.173035 79.159485,139.679443 80.209389,137.927719 
	C90.821762,120.221489 106.821243,112.154442 126.951851,110.950966 
	C129.111145,110.821884 131.720398,109.735710 133.212097,108.206810 
	C152.751877,88.179787 182.500290,82.022011 208.206650,92.754005 
	C210.224915,93.596603 212.744476,93.988197 214.886993,93.657112 
	C225.695740,91.986900 235.622116,94.438835 245.312637,99.069809 
	C247.806427,100.261551 251.014465,101.036095 253.680298,100.622482 
	C278.211334,96.816360 301.494934,107.277908 314.521332,128.152054 
	C315.504150,129.726974 317.088623,131.174622 318.729767,132.053299 
	C343.341705,145.230591 355.901001,165.829544 357.212433,193.601364 
	C357.333160,196.158981 358.311981,199.124634 359.896729,201.091537 
	C370.022369,213.658539 373.708984,227.835556 368.825104,243.114914 
	C366.276672,251.087860 366.150085,259.042755 365.168182,267.035797 
	C361.260681,298.843231 333.572632,324.661316 301.397095,325.100464 
	C264.906982,325.598541 228.402863,325.125793 191.905212,324.982239 
	C181.299301,324.940491 171.630966,321.708954 162.677902,315.344299 
M73.854378,154.173706 
	C63.580952,160.149414 58.953587,169.374969 58.181946,180.958969 
	C58.049213,182.951599 57.506130,185.341232 56.257782,186.760345 
	C51.350777,192.338531 49.146820,198.578766 49.687649,206.014038 
	C49.839916,208.107376 49.114376,210.541489 48.054695,212.398987 
	C42.988537,221.279358 40.458183,230.630341 40.568531,240.956421 
	C40.856750,267.926575 62.604782,295.785858 94.934586,293.870758 
	C113.866394,292.749359 132.918777,293.563995 151.914368,293.757263 
	C154.045273,293.778931 156.897018,294.838470 158.164963,296.419067 
	C168.355331,309.122314 181.371262,315.257782 197.681152,315.183624 
	C230.509888,315.034393 263.340118,315.158417 296.169556,315.237091 
	C331.268860,315.321167 356.502136,289.056091 355.068542,253.942047 
	C354.991821,252.062119 355.269104,249.917770 356.126709,248.288818 
	C363.621033,234.054214 361.612305,217.944244 350.300354,206.374512 
	C347.721497,203.736908 346.935760,201.272675 346.959991,197.674408 
	C347.141174,170.768539 335.805206,151.017807 310.581848,140.021515 
	C309.125946,139.386795 308.141479,137.576675 307.046356,136.225449 
	C303.200226,131.479935 300.022339,125.973091 295.468414,122.062233 
	C281.927582,110.433578 266.025818,108.359962 248.972336,112.177567 
	C247.353638,112.539932 245.009750,112.169662 243.741165,111.186478 
	C234.818558,104.271324 225.006729,102.355286 214.066605,104.790039 
	C212.062164,105.236137 209.429169,104.944214 207.643723,103.970688 
	C185.852631,92.089035 153.736465,98.482491 138.795776,118.244331 
	C136.290878,121.557549 133.915268,122.317711 130.152451,122.134720 
	C114.069290,121.352547 100.077705,126.542877 91.496910,140.391846 
	C87.115768,147.462784 82.693855,152.483505 73.854378,154.173706 
z"/>
<path fill="#F05941" opacity="1.000000" stroke="none" 
	d="M72.077209,245.175323 
	C70.625755,248.733292 69.117134,251.890121 68.096748,255.197571 
	C67.144890,258.282867 67.174255,260.981903 70.542931,263.353912 
	C74.110802,265.866150 73.820328,270.801056 70.764633,273.916534 
	C67.771446,276.968292 63.022743,277.074341 59.993469,274.157104 
	C56.898182,271.176300 57.140694,266.226898 60.056458,262.935852 
	C61.642891,261.145233 63.200317,258.811157 63.550568,256.534485 
	C64.921432,247.623520 69.559158,240.463150 74.970840,233.793640 
	C72.944778,229.684769 70.666840,226.280228 65.525352,228.061523 
	C63.975769,228.598373 62.336685,229.505966 61.279015,230.716080 
	C58.057568,234.401825 53.726421,235.269638 50.305820,232.580536 
	C46.948341,229.941055 46.463398,224.784058 49.257305,221.430191 
	C52.083115,218.038025 56.593922,217.813232 60.348576,220.877441 
	C64.875290,224.571686 69.119705,223.808655 72.391922,218.773666 
	C73.019905,217.807373 73.802658,216.912949 74.639816,216.117844 
	C75.999657,214.826340 78.703339,213.603348 78.664406,212.423203 
	C78.511948,207.802734 77.622025,203.187149 76.699890,198.631729 
	C76.555458,197.918259 74.804237,197.561096 73.832237,196.978683 
	C69.852806,194.594193 68.590233,189.926331 70.906334,186.245010 
	C73.322266,182.404999 78.181534,181.375381 81.767708,183.943649 
	C85.378868,186.529785 86.068214,191.242081 83.482101,194.993774 
	C82.512123,196.400925 80.966660,198.018280 81.066208,199.443192 
	C81.377853,203.904236 82.310272,208.326294 83.122482,212.741318 
	C83.204422,213.186722 84.073547,213.535507 84.626884,213.838776 
	C94.108688,219.035812 95.252335,224.973679 88.029953,233.775528 
	C91.986565,240.795410 96.040024,247.987106 100.476898,255.859085 
	C107.306305,248.780273 114.831253,243.922363 125.073936,244.649643 
	C125.103752,233.074310 131.881042,226.851715 141.642334,222.925369 
	C130.860123,211.131485 120.208305,199.480225 110.144333,188.471985 
	C110.144333,190.300461 110.292755,193.598236 110.115814,196.878464 
	C109.633011,205.829315 108.974655,214.770721 108.492714,223.721619 
	C108.428123,224.921356 108.734306,226.282669 109.291420,227.348175 
	C111.076965,230.763123 110.893730,234.294342 107.910599,236.320831 
	C105.824074,237.738235 101.785110,238.596924 99.966568,237.489990 
	C97.835068,236.192535 96.198067,232.529617 96.095917,229.826630 
	C95.953804,226.065948 99.012390,224.145813 102.855774,223.999573 
	C103.329666,223.981537 103.797134,223.794754 105.628799,223.371979 
	C105.734573,211.364120 105.904366,199.100220 105.844894,186.837448 
	C105.839569,185.739899 104.436363,184.568604 103.524521,183.576660 
	C102.422897,182.378281 100.329193,181.480896 100.101532,180.198242 
	C99.222290,175.244476 95.349792,174.863403 91.721344,174.054260 
	C88.191376,173.267075 84.989937,171.011551 80.938995,173.783386 
	C77.184982,176.352051 71.787361,173.834045 70.207848,169.704514 
	C68.638809,165.602402 70.754799,161.232071 75.081619,159.638351 
	C79.408989,158.044418 83.059677,160.134140 84.945580,164.680969 
	C85.621269,166.310028 87.301041,167.846237 88.908638,168.683411 
	C90.927963,169.735016 93.343361,170.026886 95.588699,170.643494 
	C101.324371,172.218597 106.735977,168.400040 106.916267,162.593292 
	C107.030273,158.921249 107.882973,155.413422 103.380928,152.833038 
	C99.773544,150.765457 100.178375,145.421860 103.152542,142.266479 
	C106.132179,139.105286 110.777763,139.018616 113.839958,142.067093 
	C116.912041,145.125427 116.892181,149.402161 113.790230,152.769104 
	C111.960510,154.755142 109.603516,166.525970 110.929764,168.568237 
	C111.457680,169.381149 113.338066,170.193481 114.061241,169.853683 
	C117.662933,168.161316 121.148621,166.186661 124.512054,164.054153 
	C125.143341,163.653900 125.164024,162.093338 125.242302,161.051376 
	C125.639076,155.769516 128.998993,152.538742 133.900726,152.817245 
	C138.739883,153.092178 141.544617,156.780472 141.473038,162.052414 
	C141.449844,163.761185 142.248306,165.815674 143.353516,167.144180 
	C147.079117,171.622452 151.353485,175.655136 154.949799,180.226547 
	C157.794205,183.842163 160.720596,186.064484 166.509903,183.531311 
	C167.105026,178.722916 168.187057,173.022186 168.427841,167.286148 
	C168.748840,159.639572 168.469635,151.964615 168.342468,144.303619 
	C168.271179,140.009689 164.793747,138.288559 160.972717,140.147034 
	C156.071793,142.530746 151.140976,145.521179 145.917099,146.372192 
	C141.311523,147.122482 136.173096,145.712891 131.483063,144.459625 
	C128.118958,143.560669 125.085938,141.384888 121.942177,139.709396 
	C118.411575,137.827728 116.906494,134.902878 117.995407,130.977539 
	C119.029770,127.248878 123.237274,124.963844 127.169823,126.009071 
	C131.160843,127.069847 132.806641,129.951065 132.423645,133.916092 
	C132.285309,135.348297 131.544662,136.722321 130.963989,138.468307 
	C134.645248,142.591125 139.704391,143.872864 144.789734,142.499756 
	C149.841003,141.135834 154.557495,138.446609 159.295639,136.087219 
	C160.149307,135.662109 160.857132,134.017715 160.852524,132.939590 
	C160.809204,122.823242 165.554932,118.780151 176.778641,120.846901 
	C176.778641,118.459885 177.186890,116.177467 176.694870,114.109215 
	C175.622803,109.602608 177.554398,105.206909 181.574951,104.038734 
	C186.004333,102.751778 190.206146,105.218819 191.104279,109.633781 
	C191.996979,114.022041 189.329376,117.745811 184.642197,118.654350 
	C180.115570,119.531769 179.519592,121.435440 180.632156,125.642227 
	C181.502716,128.933960 181.309769,132.715347 180.714676,136.126572 
	C180.141235,139.413757 181.347519,142.908905 184.303085,142.586517 
	C197.396698,141.158401 208.531845,136.047165 216.707626,124.350212 
	C215.776230,123.719528 214.960556,123.372261 214.428070,122.773270 
	C211.039719,118.961815 211.056091,114.361427 214.396088,111.230965 
	C217.512558,108.310013 222.147018,108.484482 225.145248,111.635620 
	C228.112686,114.754410 227.907898,120.001091 224.557144,123.355537 
	C222.364243,125.550865 220.007187,127.582207 217.372864,130.010300 
	C219.502411,131.974808 221.188263,133.485062 222.824951,135.046814 
	C239.037231,150.516617 237.606949,172.077850 219.412003,185.195801 
	C208.614044,192.980774 196.182968,195.625427 183.166977,196.203217 
	C177.690796,196.446289 172.345490,195.600357 167.709045,200.638977 
	C165.832916,202.677856 160.568314,201.598724 156.591858,201.961624 
	C169.216217,211.644653 181.184479,222.743927 196.733063,230.812271 
	C193.978897,224.580566 191.572021,219.572250 189.546097,214.414307 
	C187.879303,210.170654 187.904007,206.756500 193.308350,204.468033 
	C204.161667,199.872177 214.756607,194.644592 225.306885,189.374832 
	C227.179245,188.439606 228.970856,186.265549 229.668655,184.268356 
	C231.401398,179.309052 235.246613,176.758682 239.971741,178.223328 
	C244.299255,179.564713 246.890930,184.923355 245.214615,189.063644 
	C243.324020,193.733154 238.018326,196.104111 233.760681,193.455872 
	C231.116394,191.811111 229.310287,192.323074 226.984085,193.429688 
	C221.126038,196.216431 215.180618,198.819992 209.330872,201.623520 
	C207.674347,202.417435 206.226593,203.647034 204.683105,204.676819 
	C204.770370,205.121811 204.857651,205.566788 204.944931,206.011780 
	C208.931351,206.630844 212.904572,207.404663 216.914612,207.746674 
	C217.783112,207.820755 218.948105,206.476761 219.696075,205.557678 
	C223.367935,201.045868 227.723923,200.808182 232.199814,204.499588 
	C233.543732,205.607971 235.994339,206.419220 237.576279,206.000412 
	C242.532135,204.688431 247.461121,203.046066 252.127960,200.930466 
	C257.677063,198.414932 261.268097,193.892502 263.105804,188.009521 
	C264.327118,184.099777 265.187012,180.960968 260.305298,178.208267 
	C256.037201,175.801559 254.733688,171.039322 255.986938,165.891586 
	C256.305756,164.582047 256.102875,162.637466 255.311096,161.647217 
	C249.766907,154.713623 247.621216,146.692627 246.887680,138.050171 
	C246.726501,136.151169 245.794800,134.072281 244.607071,132.554092 
	C241.673950,128.804901 241.657562,124.320198 244.980957,121.396156 
	C248.200851,118.563217 253.494415,119.081497 256.098602,122.484665 
	C258.711426,125.899132 258.289246,131.423401 254.412292,133.454559 
	C250.658066,135.421387 250.753525,138.033340 251.329590,141.184204 
	C252.623810,148.263199 254.474808,155.112946 259.115845,159.593826 
	C264.392700,159.186661 268.813873,158.845505 273.235046,158.504364 
	C273.613464,159.094360 273.991882,159.684357 274.370300,160.274338 
	C277.725830,154.446198 281.261841,148.709152 284.287476,142.714478 
	C284.906281,141.488388 284.033020,139.027130 283.122040,137.597549 
	C279.836914,132.442245 281.314056,126.273506 286.513367,124.942085 
	C290.355042,123.958328 293.516968,125.209297 295.379883,128.742615 
	C297.139862,132.080612 296.387268,135.255585 293.707092,137.828979 
	C288.900757,142.443817 288.860870,142.402283 287.205841,148.469421 
	C290.590576,149.192612 293.951630,150.095306 297.372223,150.546051 
	C298.617188,150.710098 300.099457,149.978424 301.308777,149.342346 
	C305.275543,147.255875 309.723541,148.365860 311.610992,152.052383 
	C313.336121,155.421982 311.999115,159.760132 308.684937,161.546448 
	C304.882904,163.595688 300.925964,162.094742 298.851807,157.816574 
	C296.389496,152.737778 285.484955,151.487595 282.048004,155.845428 
	C279.120697,159.557083 276.196960,162.745285 277.978760,168.499130 
	C279.339996,172.894928 276.110596,176.605789 272.070618,179.066589 
	C270.827637,179.823669 269.127075,181.063309 268.998871,182.231567 
	C267.118530,199.363297 255.512817,206.432693 240.550903,210.067657 
	C237.083374,210.910095 233.696274,211.641357 232.620773,215.733475 
	C232.381561,216.643600 231.791519,217.602203 231.926895,218.448242 
	C233.236206,226.630753 228.968887,231.972534 222.573196,235.698303 
	C208.205505,244.068054 193.600037,252.028793 179.168213,260.290283 
	C177.282135,261.369995 175.450424,262.981384 174.277252,264.789978 
	C170.365112,270.821136 165.696808,271.998352 159.447388,268.415466 
	C158.240707,267.723633 156.371658,267.501953 155.029709,267.870392 
	C152.003494,268.701294 149.115936,270.037109 144.925537,271.646088 
	C149.726746,273.710938 151.757919,279.317322 157.848389,275.489990 
	C161.254959,273.349274 165.646729,275.680511 167.260330,279.465881 
	C168.850388,283.196045 167.221848,287.387421 163.515610,289.103577 
	C159.769699,290.838074 155.261200,289.633148 153.889328,285.649841 
	C151.724991,279.365570 145.956650,276.697205 141.155975,274.774231 
	C138.358841,273.653809 132.287918,277.397461 129.467667,280.545288 
	C126.460556,283.901703 124.012672,287.362823 119.431549,285.783325 
	C116.867035,284.899170 113.822510,282.104095 113.258392,279.649658 
	C112.693832,277.193329 114.182671,273.103760 116.184425,271.547119 
	C118.165619,270.006470 123.126862,269.366791 124.655685,270.724701 
	C129.261658,274.815643 132.759003,272.264526 136.220917,270.576141 
	C132.812027,263.868439 129.507355,257.110870 125.881317,250.530350 
	C125.388489,249.635956 123.286331,249.263062 121.931450,249.267700 
	C112.541504,249.299896 98.716843,260.873993 96.921974,270.240814 
	C96.728806,271.248901 97.510704,272.565521 98.107460,273.582153 
	C100.655190,277.922455 99.726006,282.630463 95.779449,284.865814 
	C91.833984,287.100555 86.914604,285.330017 84.965919,280.973846 
	C83.073303,276.743011 85.255173,273.201752 90.016052,270.698456 
	C92.116516,269.594025 93.143646,266.559784 94.844284,264.560059 
	C98.329369,260.462067 97.470207,256.955078 94.463295,252.807007 
	C91.167671,248.260727 88.769241,243.059952 86.025642,238.118958 
	C84.013786,234.495743 80.438477,233.994843 77.830536,237.185516 
	C75.833038,239.629349 74.089577,242.280807 72.077209,245.175323 
M174.054123,221.146408 
	C173.940887,221.525421 173.827652,221.904419 173.708832,223.073410 
	C176.442078,233.289246 179.175308,243.505066 182.166397,254.684662 
	C196.168228,246.214828 209.562881,238.219650 222.804413,229.978424 
	C224.640976,228.835373 226.297668,226.670776 226.983170,224.625656 
	C227.614502,222.742203 227.616974,219.326187 226.481003,218.475555 
	C224.684280,217.130157 221.911636,216.441269 219.415588,219.038406 
	C215.160812,223.465485 210.184570,227.197968 205.915695,231.613129 
	C202.184738,235.471909 198.129654,236.139664 193.805038,233.613983 
	C187.229614,229.773758 180.919250,225.479675 174.054123,221.146408 
M216.443741,182.035934 
	C234.011200,168.865631 234.643982,149.008087 217.805054,135.877808 
	C216.678284,134.999191 214.053848,134.318771 213.299957,134.949448 
	C205.300049,141.642044 196.002014,145.249771 185.712616,146.962677 
	C187.198883,150.631439 188.693436,152.996246 193.228348,152.951736 
	C198.865021,152.896423 201.875870,158.959198 199.525101,164.297653 
	C198.938675,165.629425 197.826660,166.975967 197.859604,168.293121 
	C198.036118,175.350845 198.498398,182.401413 198.907593,190.340042 
	C204.512970,187.729324 210.181610,185.089157 216.443741,182.035934 
M126.404228,184.959763 
	C122.377960,183.381699 118.351692,181.803635 114.325432,180.225571 
	C113.791145,180.857468 113.256859,181.489380 112.722580,182.121277 
	C116.619461,187.559540 120.064163,193.405029 124.513687,198.345551 
	C132.187592,206.866226 140.450043,214.860184 148.534332,223.006866 
	C154.988541,229.510849 159.647644,237.064529 161.977966,245.929398 
	C162.901886,249.444138 163.670883,252.496262 168.322403,252.553391 
	C169.676697,252.570038 170.923233,254.479370 172.378967,255.196976 
	C173.641739,255.819443 175.130463,255.983521 176.519333,256.350189 
	C176.785797,254.951065 177.553268,253.426376 177.239105,252.172745 
	C174.820206,242.520340 171.991043,232.967621 169.715500,223.283783 
	C168.634186,218.682114 166.629364,215.287262 162.741089,212.424164 
	C150.711578,203.566330 138.952606,194.341064 126.404228,184.959763 
M191.523560,169.151535 
	C185.122940,167.808731 181.790207,163.929550 183.902634,158.973923 
	C185.481354,155.270309 184.076630,153.132782 182.266541,150.560852 
	C180.833664,148.524887 179.667252,146.285431 178.103394,144.363434 
	C177.116394,143.150406 175.615768,142.355301 174.345535,141.372726 
	C173.836075,142.945755 172.880844,144.520645 172.887344,146.091537 
	C172.941483,159.205688 173.847519,172.349701 169.898666,185.182968 
	C168.749634,188.917160 172.042374,192.543564 175.961319,192.354752 
	C179.117157,192.202698 182.276398,192.060242 185.422699,191.783585 
	C193.908447,191.037384 194.300735,191.020828 194.534653,182.619858 
	C194.658524,178.171906 193.130981,173.677963 191.523560,169.151535 
M147.651794,194.874893 
	C150.128510,196.789825 152.605225,198.704758 154.987350,200.546555 
	C154.987350,196.531540 155.085724,193.228561 154.947098,189.935547 
	C154.874481,188.210480 154.952393,186.031143 153.985626,184.870560 
	C150.156281,180.273438 145.584366,176.270218 141.963776,171.530411 
	C137.880890,166.185379 131.835327,168.332245 127.202454,168.061890 
	C123.134628,167.824509 118.778961,172.519684 113.372635,175.737213 
	C127.311516,178.863052 137.444595,186.233002 147.651794,194.874893 
M141.746170,248.694397 
	C146.846542,251.048279 151.946899,253.402161 157.772415,256.090698 
	C158.414230,254.605072 159.904190,252.879562 159.566772,251.659393 
	C157.270340,243.354782 154.795914,235.040283 148.444519,228.694366 
	C147.455811,227.706497 146.061829,226.481949 144.844269,226.469849 
	C137.044281,226.392227 128.605194,236.761978 129.696609,244.799286 
	C133.483215,245.981766 137.269836,247.164246 141.746170,248.694397 
M194.119995,209.011719 
	C193.633545,209.759171 192.558044,210.745728 192.749725,211.217941 
	C195.310471,217.526627 198.048477,223.763351 201.066727,230.771072 
	C207.861435,224.321869 213.658279,218.819794 219.455139,213.317719 
	C219.274719,212.873596 219.094299,212.429489 218.913879,211.985382 
	C210.925323,210.994644 202.936752,210.003922 194.119995,209.011719 
M141.180969,267.536377 
	C145.994247,266.108887 150.807510,264.681427 155.620789,263.253937 
	C155.712738,262.675201 155.804672,262.096466 155.896606,261.517731 
	C148.823410,254.955322 139.693253,252.607529 130.815979,249.741562 
	C130.336319,250.219131 129.856659,250.696701 129.376999,251.174271 
	C133.142151,256.449707 136.907303,261.725128 141.180969,267.536377 
z"/>
<path fill="#F05941" opacity="1.000000" stroke="none" 
	d="M328.750763,263.231567 
	C331.234161,266.917084 333.444489,270.364960 335.679382,273.796875 
	C336.457581,274.991852 337.148956,276.292175 338.133636,277.295380 
	C342.117340,281.353851 342.326141,287.108185 338.502380,290.579926 
	C335.214172,293.565399 329.427490,292.800537 326.558044,289.001190 
	C323.451508,284.887909 324.580597,280.076904 329.442871,276.680328 
	C329.971039,276.311371 330.474457,275.907013 331.054016,275.470398 
	C330.152679,269.353241 326.422150,265.663940 321.426880,262.950409 
	C314.418243,268.780945 312.602509,268.769745 306.166687,263.136230 
	C305.497681,262.550629 304.502014,262.033875 303.646667,262.015717 
	C298.690765,261.910431 293.731537,261.964264 287.219055,261.964264 
	C291.231873,267.063873 294.062073,270.865723 297.162384,274.432800 
	C297.806244,275.173615 299.441040,275.209717 300.637360,275.286285 
	C305.415222,275.592010 308.461914,278.861938 308.093201,283.428223 
	C307.756897,287.592987 304.296173,290.504486 300.267120,290.012268 
	C295.871246,289.475250 293.356567,285.661713 293.612396,281.027191 
	C293.729431,278.906525 293.090271,276.309906 291.851318,274.620605 
	C284.961212,265.226044 278.150391,255.725601 270.551483,246.917969 
	C266.531189,242.258224 261.263000,238.460907 256.006561,235.149994 
	C251.839310,232.525116 247.713516,233.157211 243.551285,237.179459 
	C239.254593,241.331619 237.413208,244.615677 239.635574,250.748703 
	C243.420227,261.193176 245.961670,272.083435 249.287430,282.704346 
	C249.757187,284.204559 251.557495,285.453339 252.998734,286.445374 
	C255.151077,287.926880 257.531525,289.077026 260.063202,290.508514 
	C269.742004,286.359680 271.875305,280.642120 266.891907,269.846283 
	C265.099304,265.962860 264.044800,260.943054 257.298187,262.261200 
	C253.941101,262.917114 250.664719,258.194580 251.175919,254.582260 
	C251.753326,250.501816 254.173325,247.887314 258.382996,247.502563 
	C262.154114,247.157898 266.299042,250.629211 265.935913,254.508896 
	C265.573181,258.384338 267.113678,261.123260 268.977142,264.087860 
	C273.304169,270.971771 275.269958,278.347534 272.839355,285.779724 
	C280.045624,288.843842 286.802277,291.823975 293.669189,294.523621 
	C294.726196,294.939178 296.386536,294.283478 297.602692,293.748077 
	C302.096680,291.769653 306.515778,293.429932 308.264587,297.904663 
	C309.865295,302.000397 307.788940,306.529572 303.615356,308.046051 
	C299.256409,309.629883 295.136993,307.229156 293.784210,302.355286 
	C293.480713,301.261719 293.309265,299.973755 292.617645,299.171021 
	C287.646210,293.400818 271.697632,289.739502 265.140320,293.230347 
	C262.995911,294.371948 261.061707,296.857910 260.147919,299.170288 
	C258.043396,304.495880 253.443207,307.408203 247.957581,306.048492 
	C242.793289,304.768402 239.762985,299.842712 240.901672,294.579346 
	C241.799744,290.428101 238.609131,285.736145 234.233704,284.829285 
	C233.591171,284.696136 232.893921,284.837036 232.245621,284.720184 
	C227.660736,283.893555 224.860611,280.500061 225.495163,276.386963 
	C226.129852,272.272980 228.861023,270.335052 232.805740,270.290588 
	C236.849030,270.244934 240.555710,273.921814 239.911285,278.302979 
	C239.193329,283.183899 241.888519,285.024750 246.324081,287.934937 
	C242.120804,273.268341 238.274658,259.847870 234.276627,245.897415 
	C230.148895,248.990463 226.017792,251.927353 222.115005,255.141464 
	C221.312393,255.802490 221.082397,257.495148 221.064606,258.719208 
	C220.931442,267.881927 220.783096,277.049255 220.979050,286.207886 
	C221.018875,288.069244 222.110535,290.243927 223.386978,291.678162 
	C226.818970,295.534363 227.705078,299.434937 225.351593,303.464813 
	C223.179352,307.184326 219.806641,308.908234 215.650223,307.940186 
	C211.088150,306.877686 208.825165,303.472992 208.306793,298.911255 
	C207.885468,295.203644 202.781509,291.496124 198.987534,292.199982 
	C194.628571,293.008636 190.847458,290.673981 189.964096,286.628418 
	C189.034866,282.372772 191.505508,278.521851 195.727325,277.645355 
	C199.758774,276.808441 203.507874,279.579895 204.322159,283.999023 
	C205.568634,290.763641 208.199493,292.325043 214.416489,290.001678 
	C215.163574,289.722504 215.930481,289.496399 216.763611,289.220734 
	C216.763611,278.859833 216.763611,268.721680 216.763611,257.626312 
	C206.569199,263.135223 196.604263,268.258698 186.927826,273.878937 
	C183.104416,276.099609 181.166962,287.537384 183.542557,290.887756 
	C184.141510,291.732452 185.467896,292.049103 186.437119,292.645599 
	C190.537521,295.169098 191.704865,299.541412 189.300797,303.317841 
	C186.992340,306.944153 182.382660,307.862030 178.822052,305.404388 
	C175.179810,302.890411 174.687302,298.277252 177.212051,294.376526 
	C178.238770,292.790253 179.038254,290.538208 178.801758,288.738861 
	C177.459274,278.524048 181.391449,271.257538 190.380081,266.528564 
	C191.557602,265.909058 192.697281,265.193115 193.925537,264.698151 
	C225.761734,251.868851 249.035034,228.682602 269.855408,202.385345 
	C273.514984,197.763092 278.060699,193.634872 282.829010,190.140762 
	C293.027222,182.667770 303.696533,175.840332 314.014465,168.525055 
	C315.442841,167.512344 316.450500,165.328827 316.821808,163.516983 
	C317.728760,159.091721 321.164124,156.182831 325.272583,156.935715 
	C329.385315,157.689377 332.271210,162.175797 331.345154,166.376114 
	C330.402466,170.651825 326.873871,172.381073 322.097351,171.319946 
	C320.567810,170.980133 318.456818,171.094803 317.223724,171.918030 
	C304.906128,180.141525 292.490570,188.248917 280.557373,197.008514 
	C269.660217,205.007584 269.320038,220.952957 279.266022,230.324448 
	C282.955719,233.800995 287.584961,235.489716 292.136719,233.361786 
	C303.957153,227.835831 315.493744,221.702835 327.143616,215.812088 
	C327.024292,215.245438 326.904938,214.678787 326.785614,214.112137 
	C320.058868,212.765320 313.351532,211.300278 306.586182,210.188263 
	C305.461365,210.003387 304.014130,211.250473 302.835693,212.019409 
	C299.006836,214.517822 294.885864,213.893997 292.265778,210.326309 
	C289.767212,206.924088 290.252625,202.464310 293.381195,200.078247 
	C296.787354,197.480469 301.387604,198.533279 304.416656,202.044525 
	C305.863464,203.721603 308.022644,205.235367 310.133209,205.801743 
	C315.859131,207.338257 321.731537,208.328949 328.539673,209.742401 
	C327.684875,207.989944 327.439941,206.909592 326.781494,206.229736 
	C321.742920,201.027267 320.706787,193.226807 314.567200,188.507080 
	C311.521301,186.165558 313.140656,180.478745 316.402191,177.939636 
	C319.715149,175.360565 324.475800,175.792282 327.232117,178.921783 
	C329.999695,182.064133 329.908875,186.562057 326.945984,189.789230 
	C326.167999,190.636627 325.215149,191.323502 323.566956,192.760208 
	C325.637268,196.257980 327.598541,200.009354 330.038940,203.417694 
	C330.736633,204.392151 332.878265,204.242889 334.260529,204.835709 
	C337.142273,206.071640 340.990692,206.763321 342.493805,208.992294 
	C343.825104,210.966599 343.114502,214.915131 342.222900,217.637619 
	C341.144104,220.931717 343.618683,226.755280 347.451935,227.925415 
	C352.654694,229.513611 355.247772,234.085190 353.512390,238.610062 
	C352.051636,242.418884 348.402557,244.351456 344.759308,243.245804 
	C340.806335,242.046158 338.830261,238.184799 339.840820,233.634903 
	C341.548981,225.943817 338.593018,221.142868 330.874084,219.530579 
	C329.632782,219.271286 328.021637,219.910599 326.803284,220.554352 
	C318.567169,224.906189 310.474823,229.535873 302.177643,233.765137 
	C284.646698,242.701080 272.965118,237.037308 268.826843,217.780899 
	C268.445007,216.004028 268.124847,214.213913 267.690796,211.994064 
	C262.635376,217.665497 257.740326,223.156998 252.495911,229.040466 
	C266.659027,233.033707 274.246094,244.159668 282.080109,254.933807 
	C284.022156,257.604706 285.831238,259.345184 289.435364,258.310669 
	C291.309021,257.772827 293.404877,257.992584 295.401855,257.903931 
	C300.134735,257.693817 304.063965,257.882233 307.986298,252.936081 
	C310.935577,249.216965 313.727783,246.010666 314.645477,241.404037 
	C314.973755,239.756119 315.086761,237.915115 314.702454,236.304337 
	C313.660370,231.936188 315.295624,228.407486 319.267944,227.199371 
	C323.175781,226.010880 327.548889,228.411530 328.762848,232.411682 
	C329.922516,236.232758 327.746124,240.252716 323.836182,241.511658 
	C316.731293,243.799362 316.540131,246.376648 320.000702,253.261490 
	C322.140320,257.518311 324.883148,260.421448 328.750763,263.231567 
z"/>

</svg>